# xmcd
#
# Track frame offsets:
# 150
# 15005
# 39097
# 53752
# 65247
# 86025
# 100810
# 112277
# 128057
# 152492
# 168990
# 189532
# 206584
# 218920
# 233317
#
# Disc length: 3434 seconds
#
# Revision: 0
# Processed by: cddbd v1.4PL0 Copyright (c) Steve Scherf et al.
# Submitted via: Axialis_AX_CDPlayer 2.6
#
DISCID=bd0d680f
DTITLE=Various Artist - Darker Blues, Disk 01
DYEAR=1900
DGENRE=
TTITLE0=Asie Payton - Do Me Right
TTITLE1=Junior Kimbrough and Charlie Feathers - Release Me
TTITLE2=T-Model Ford - To the Left to the Right
TTITLE3=Paul Jones - Goin' Back Home
TTITLE4=Hezekiah Early - Let it All Go
TTITLE5=Elmo Williams - Mother's Dead
TTITLE6=20 Miles - All My Brothers, Sisters Too
TTITLE7=Bob Log III - Log Bomb
TTITLE8=Solomon Burke - None of Us Are Free
TTITLE9=Johnny Farmer - Death Letter
TTITLE10=Robert Belfour - Pushin' My Luck
TTITLE11=Kenny Brown - Fare Thee Well
TTITLE12=CeDell Davis - Coon Can Mattie
TTITLE13=Scott Dunbar - Easy Rider
TTITLE14=Robert Pete Williams - Goodbye Slim Harpo
EXTD=
EXTT0=
EXTT1=
EXTT2=
EXTT3=
EXTT4=
EXTT5=
EXTT6=
EXTT7=
EXTT8=
EXTT9=
EXTT10=
EXTT11=
EXTT12=
EXTT13=
EXTT14=
PLAYORDER=
